<svg width="53" height="50" viewBox="0 0 53 50" fill="none" xmlns="http://www.w3.org/2000/svg">
<path d="M41.0556 2.29627C43.6559 3.49291 45.8737 5.54177 44.8659 8.21238C43.5311 11.7497 34.9136 19.475 19.7286 20.5473L19.043 22.0386C21.0997 22.1154 26.6756 21.716 32.5258 19.5038C35.9536 18.4285 43.4948 14.803 46.2371 8.90383C46.6941 7.5759 47.0186 5.86009 45.0944 4.0647C44.3031 3.32625 42.8092 2.68209 41.0556 2.29627Z" fill="white"/>
<path d="M24.299 2.91243C29.6007 2.35938 34.7348 2.83562 36.6392 3.14286C40.4783 3.69587 40.2955 6.13861 39.6099 7.29079C38.0103 9.59527 35.7886 10.9392 33.2113 11.8995C29.0313 13.4569 24.5275 13.5125 21.5567 13.7428L17.4434 20.6559C18.2209 20.6366 18.9827 20.6 19.7286 20.5473C34.9136 19.475 43.5311 11.7497 44.8659 8.21238C45.8737 5.54177 43.6559 3.49291 41.0556 2.29627C40.0425 1.83006 38.9714 1.4932 38.0103 1.29934C34.5825 0.607895 27.803 0.992095 25.8987 1.06891L24.299 2.91243Z" fill="#00953C"/>
<path fill-rule="evenodd" clip-rule="evenodd" d="M42.8104 13.5123C48.4778 18.121 47.1524 22.0384 45.7812 23.421C38.6514 30.9793 24.5287 34.4051 18.3587 35.1732C12.5085 35.9106 8.30371 36.0949 6.93259 36.0949L0.0769431 46.4645C-0.188787 46.4668 0.34047 46.4645 0.0769431 46.4645C3.49812 46.4348 7.88168 46.2174 11.2745 46.0036C14.9308 45.7732 17.9016 45.3249 23.6146 43.4688C26.3236 42.5888 29.1452 41.4198 31.1559 40.4732C34.6058 38.849 37.3551 37.2615 39.8397 35.634C42.7247 33.7443 45.0333 31.9029 46.4668 30.5645C52.6369 24.8036 51.1896 18.6587 49.4376 16.5079C48.1579 14.6645 45.1718 13.2819 43.7245 12.5906L42.8104 13.5123Z" fill="#00953C"/>
<path d="M49.4376 16.5079C51.1896 18.6587 52.6369 24.8036 46.4668 30.5645C45.0333 31.9029 42.7247 33.7443 39.8397 35.634C37.3551 37.2615 34.6058 38.849 31.1559 40.4732C29.1452 41.4198 26.3236 42.5888 23.6146 43.4688C17.9016 45.3249 14.9308 45.7732 11.2745 46.0036C7.88168 46.2174 3.49812 46.4348 0.0769431 46.4645C0.345503 47.0801 0.991078 48.8696 1.90516 49.0539C4.34273 49.2076 8.53224 48.9993 11.9601 48.7688C18.0983 48.3562 28.3581 45.826 37.5545 40.4732C42.71 37.4723 47.6879 33.9092 51.0372 28.5452C52.6369 25.9833 53.551 22.7844 52.6369 20.2496C52.2163 19.0834 51.0829 17.614 49.4376 16.5079Z" fill="white"/>
</svg>
